<svg width="24" height="24" viewBox="0 0 24 24" fill="none" xmlns="http://www.w3.org/2000/svg">
<g clip-path="url(#clip0_1344_2360)">
<path d="M14 2H6C4.9 2 4 2.9 4 4V20C4 21.1 4.89 22 5.99 22H18C19.1 22 20 21.1 20 20V8L14 2ZM18 20H6V4H13V9H18V20Z" fill="#0099FF"/>
<path d="M9.02945 11.03C7.65945 12.4 7.65945 14.61 9.02945 15.98C10.1495 17.1 11.8295 17.29 13.1595 16.57L15.0395 18.45L16.4495 17.04L14.5695 15.16C15.2795 13.83 15.0995 12.15 13.9795 11.03C12.6095 9.66 10.3895 9.66 9.02945 11.03ZM12.5595 14.56C11.9695 15.15 11.0195 15.15 10.4395 14.56C9.84945 13.97 9.84945 13.02 10.4395 12.44C11.0295 11.85 11.9795 11.85 12.5595 12.44C13.1495 13.03 13.1495 13.97 12.5595 14.56Z" fill="#0099FF"/>
</g>
<defs>
<clipPath id="clip0_1344_2360">
<rect width="24" height="24" fill="white"/>
</clipPath>
</defs>
</svg>
