<svg width="48" height="48" viewBox="0 0 48 48" fill="none" xmlns="http://www.w3.org/2000/svg">
<circle cx="24" cy="24" r="24" fill="#060606"/>
<g clip-path="url(#clip0_2774_1906)">
<path d="M28.5996 30.0266L24.5862 26.0133C24.4396 25.8666 24.2662 25.84 24.1729 25.84C24.0796 25.84 23.9062 25.8666 23.7596 26.0133L19.7329 30.04C19.2796 30.4933 18.5729 31.2266 16.2129 31.2266L21.1596 36.16C22.7196 37.72 25.2529 37.72 26.8129 36.16L31.7729 31.2133C30.5596 31.2133 29.5462 30.9733 28.5996 30.0266Z" fill="white"/>
<path d="M19.7329 17.96L23.7596 21.9866C23.8663 22.0933 24.0263 22.16 24.1729 22.16C24.3196 22.16 24.4796 22.0933 24.5863 21.9866L28.5729 18C29.5196 17.0133 30.5996 16.7866 31.8129 16.7866L26.8529 11.84C25.2929 10.28 22.7596 10.28 21.1996 11.84L16.2529 16.7733C18.5996 16.7733 19.3196 17.5466 19.7329 17.96Z" fill="white"/>
<path d="M36.1466 21.1333L33.1466 18.12H31.4666C30.7466 18.12 30.0266 18.4133 29.5333 18.9333L25.5333 22.9333C25.1599 23.3067 24.6666 23.4933 24.1733 23.4933C23.6933 23.4933 23.1866 23.2933 22.8133 22.9333L18.7866 18.8933C18.2799 18.3867 17.5866 18.0933 16.8533 18.0933H14.8933L11.8399 21.16C10.2799 22.72 10.2799 25.2533 11.8399 26.8133L14.8933 29.88H16.8666C17.5866 29.88 18.2799 29.5867 18.7999 29.08L22.8266 25.0533C23.1999 24.68 23.6933 24.4933 24.1866 24.4933C24.6799 24.4933 25.1733 24.68 25.5466 25.0533L29.5599 29.0667C30.0666 29.5733 30.7599 29.8667 31.4933 29.8667H33.1733L36.1733 26.8533C37.7333 25.28 37.7333 22.72 36.1466 21.1333Z" fill="white"/>
</g>
<defs>
<clipPath id="clip0_2774_1906">
<rect width="32" height="32" fill="white" transform="translate(8 8)"/>
</clipPath>
</defs>
</svg>
