<svg width="32" height="32" viewBox="0 0 32 32" fill="none" xmlns="http://www.w3.org/2000/svg">
<g clip-path="url(#clip0_1645_1728)">
<path d="M23.1401 16.94C23.1801 16.64 23.2001 16.33 23.2001 16C23.2001 15.68 23.1801 15.36 23.1301 15.06L25.1601 13.48C25.3401 13.34 25.3901 13.07 25.2801 12.87L23.3601 9.55002C23.2401 9.33002 22.9901 9.26002 22.7701 9.33002L20.3801 10.29C19.8801 9.91002 19.3501 9.59002 18.7601 9.35002L18.4001 6.81002C18.3601 6.57002 18.1601 6.40002 17.9201 6.40002H14.0801C13.8401 6.40002 13.6501 6.57002 13.6101 6.81002L13.2501 9.35002C12.6601 9.59002 12.1201 9.92002 11.6301 10.29L9.24011 9.33002C9.02011 9.25002 8.77011 9.33002 8.65011 9.55002L6.74011 12.87C6.62011 13.08 6.66011 13.34 6.86011 13.48L8.89011 15.06C8.84011 15.36 8.80011 15.69 8.80011 16C8.80011 16.31 8.82011 16.64 8.87011 16.94L6.84011 18.52C6.66011 18.66 6.61011 18.93 6.72011 19.13L8.64011 22.45C8.76011 22.67 9.01011 22.74 9.23011 22.67L11.6201 21.71C12.1201 22.09 12.6501 22.41 13.2401 22.65L13.6001 25.19C13.6501 25.43 13.8401 25.6 14.0801 25.6H17.9201C18.1601 25.6 18.3601 25.43 18.3901 25.19L18.7501 22.65C19.3401 22.41 19.8801 22.09 20.3701 21.71L22.7601 22.67C22.9801 22.75 23.2301 22.67 23.3501 22.45L25.2701 19.13C25.3901 18.91 25.3401 18.66 25.1501 18.52L23.1401 16.94ZM16.0001 19.6C14.0201 19.6 12.4001 17.98 12.4001 16C12.4001 14.02 14.0201 12.4 16.0001 12.4C17.9801 12.4 19.6001 14.02 19.6001 16C19.6001 17.98 17.9801 19.6 16.0001 19.6Z" fill="#060606"/>
</g>
<defs>
<clipPath id="clip0_1645_1728">
<rect width="24" height="24" fill="white" transform="translate(4 4)"/>
</clipPath>
</defs>
</svg>
