<svg width="40" height="40" viewBox="0 0 40 40" fill="none" xmlns="http://www.w3.org/2000/svg">
<circle cx="20" cy="20" r="20" fill="#060606" fill-opacity="0.08"/>
<g clip-path="url(#clip0_933_1879)">
<path d="M19.9917 11.6667C15.3917 11.6667 11.6667 15.4001 11.6667 20.0001C11.6667 24.6001 15.3917 28.3334 19.9917 28.3334C24.6001 28.3334 28.3334 24.6001 28.3334 20.0001C28.3334 15.4001 24.6001 11.6667 19.9917 11.6667ZM25.7667 16.6667H23.3084C23.0417 15.6251 22.6584 14.6251 22.1584 13.7001C23.6917 14.2251 24.9667 15.2917 25.7667 16.6667ZM20.0001 13.3667C20.6917 14.3667 21.2334 15.4751 21.5917 16.6667H18.4084C18.7667 15.4751 19.3084 14.3667 20.0001 13.3667ZM13.5501 21.6667C13.4167 21.1334 13.3334 20.5751 13.3334 20.0001C13.3334 19.4251 13.4167 18.8667 13.5501 18.3334H16.3667C16.3001 18.8834 16.2501 19.4334 16.2501 20.0001C16.2501 20.5667 16.3001 21.1167 16.3667 21.6667H13.5501ZM14.2334 23.3334H16.6917C16.9584 24.3751 17.3417 25.3751 17.8417 26.3001C16.3084 25.7751 15.0334 24.7167 14.2334 23.3334ZM16.6917 16.6667H14.2334C15.0334 15.2834 16.3084 14.2251 17.8417 13.7001C17.3417 14.6251 16.9584 15.6251 16.6917 16.6667ZM20.0001 26.6334C19.3084 25.6334 18.7667 24.5251 18.4084 23.3334H21.5917C21.2334 24.5251 20.6917 25.6334 20.0001 26.6334ZM21.9501 21.6667H18.0501C17.9751 21.1167 17.9167 20.5667 17.9167 20.0001C17.9167 19.4334 17.9751 18.8751 18.0501 18.3334H21.9501C22.0251 18.8751 22.0834 19.4334 22.0834 20.0001C22.0834 20.5667 22.0251 21.1167 21.9501 21.6667ZM22.1584 26.3001C22.6584 25.3751 23.0417 24.3751 23.3084 23.3334H25.7667C24.9667 24.7084 23.6917 25.7751 22.1584 26.3001ZM23.6334 21.6667C23.7001 21.1167 23.7501 20.5667 23.7501 20.0001C23.7501 19.4334 23.7001 18.8834 23.6334 18.3334H26.4501C26.5834 18.8667 26.6667 19.4251 26.6667 20.0001C26.6667 20.5751 26.5834 21.1334 26.4501 21.6667H23.6334Z" fill="#060606"/>
</g>
<defs>
<clipPath id="clip0_933_1879">
<rect width="20" height="20" fill="white" transform="translate(10 10)"/>
</clipPath>
</defs>
</svg>
