<svg width="182" height="32" viewBox="0 0 182 32" fill="none" xmlns="http://www.w3.org/2000/svg">
<path d="M29.569 32C33.5862 27.9679 37.0173 23.8204 39.479 19.4819C40.4356 17.7968 39.7102 15.5747 37.6941 14.8456C35.678 14.1164 32.3019 13.5287 25.8667 15.2085C23.7082 15.7722 19.4438 17.2465 15.6647 18.0082C13.148 18.5158 13.9342 16.8382 14.4077 16.0471C16.7104 12.1991 21.2512 7.5318 24.9278 5.42019C25.9068 4.8576 29.3795 3.2061 36.3389 7.9775C33.0247 3.87011 28.0702 0.836676 26.0178 0.190809C25.1253 -0.089956 24.1629 -0.0573977 23.2843 0.265536C15.4742 3.13297 6.04878 11.5047 0.682219 20.6445C-0.899353 23.3379 0.364621 25.4506 3.48506 25.3252C10.0889 25.0588 21.5811 18.9236 28.9375 16.054C30.2005 15.5614 31.5781 16.456 31.6347 17.8102C31.8039 21.854 30.849 26.7968 29.569 32Z" fill="#0099FF"/>
<path d="M57.9004 9.30859V10.4497H53.6079V22.7099H52.2933V10.4497H48V9.30859H57.9004Z" fill="#060606"/>
<path d="M59.9893 9.31055H61.3047V22.711H59.9893V9.31055Z" fill="#060606"/>
<path d="M70.3525 23.0004C69.4881 23.0004 68.6851 22.8457 67.9443 22.5362C67.2035 22.2268 66.5585 21.7758 66.0109 21.1824C65.4625 20.5897 65.0311 19.8588 64.716 18.9878C64.3992 18.1177 64.2412 17.1215 64.2412 16.0001C64.2412 14.8787 64.4123 13.8825 64.7536 13.0124C65.095 12.1423 65.5501 11.4113 66.1173 10.8179C66.6846 10.2253 67.3419 9.77669 68.0892 9.47383C68.8374 9.17097 69.6174 9.01953 70.4303 9.01953C70.932 9.01953 71.3896 9.05146 71.803 9.11612C72.2147 9.18079 72.5757 9.261 72.8851 9.35759C73.1945 9.45418 73.4589 9.55077 73.6775 9.64818C73.8976 9.74477 74.0646 9.83154 74.1809 9.90848L73.7552 11.0504C73.4327 10.8564 73.0234 10.6665 72.5274 10.4798C72.0314 10.2924 71.4158 10.1991 70.6807 10.1991C69.8425 10.1991 69.1116 10.3407 68.4862 10.6247C67.8608 10.9079 67.3353 11.3074 66.9105 11.8231C66.484 12.3387 66.1656 12.9518 65.9528 13.6607C65.74 14.3696 65.6336 15.1562 65.6336 16.0198C65.6336 16.9087 65.74 17.7117 65.9528 18.4271C66.1656 19.1425 66.4783 19.7515 66.8909 20.2541C67.3034 20.7575 67.8093 21.1439 68.4084 21.4148C69.0076 21.6858 69.6944 21.8208 70.4679 21.8208C71.3192 21.8208 72.0314 21.7406 72.6052 21.5794C73.179 21.4181 73.6136 21.2536 73.9099 21.0858L74.2774 22.2072C74.1874 22.2719 74.0327 22.3463 73.8133 22.4298C73.594 22.5141 73.3165 22.6009 72.9817 22.6909C72.6469 22.781 72.2597 22.8555 71.8218 22.9136C71.3831 22.9717 70.8936 23.0004 70.3525 23.0004Z" fill="#060606"/>
<path d="M84.7413 22.7099C84.3034 22.0379 83.8106 21.3732 83.2622 20.7151C82.7146 20.057 82.1375 19.4373 81.5318 18.8562C80.9252 18.275 80.3097 17.7454 79.6843 17.2682C79.0589 16.7901 78.4565 16.3899 77.8761 16.0674V22.7099H76.5615V9.30859H77.8761V15.5451C78.3664 15.1072 78.9116 14.6022 79.5116 14.03C80.1116 13.457 80.705 12.8807 81.2927 12.3012C81.8788 11.7225 82.4313 11.1692 82.947 10.6412C83.4635 10.1132 83.8761 9.66957 84.1855 9.30859H85.771C85.3969 9.70805 84.9451 10.1812 84.4163 10.728C83.8884 11.2756 83.326 11.8387 82.7326 12.4174C82.1391 12.997 81.5489 13.5659 80.962 14.1258C80.3751 14.6856 79.8496 15.1784 79.3847 15.6032C79.7588 15.8357 80.1615 16.123 80.5937 16.4652C81.0251 16.8073 81.4638 17.1814 81.9083 17.5874C82.3536 17.995 82.7915 18.4207 83.2229 18.866C83.6551 19.3113 84.0611 19.7607 84.4417 20.2117C84.8215 20.6635 85.1637 21.1023 85.4665 21.5287C85.7694 21.9544 86.0174 22.3489 86.2114 22.7099H84.7413Z" fill="#060606"/>
<path d="M88.1436 22.7099V9.30859H95.8788V10.4497H89.4582V15.1105H95.1823V16.2319H89.4582V21.5688H96.3806V22.7099H88.1436Z" fill="#060606"/>
<path d="M107.384 9.30859V10.4497H103.091V22.7099H101.777V10.4497H97.4834V9.30859H107.384Z" fill="#060606"/>
<path d="M112.935 20.4098C113.36 20.4098 113.712 20.3738 113.989 20.3034C114.266 20.2321 114.488 20.1356 114.656 20.0128C114.823 19.8908 114.939 19.7459 115.004 19.5781C115.069 19.4103 115.101 19.2237 115.101 19.0166C115.101 18.5787 114.894 18.2144 114.482 17.9246C114.069 17.6341 113.36 17.3214 112.355 16.9866C111.916 16.8319 111.478 16.6551 111.04 16.4554C110.601 16.2548 110.208 16.0035 109.86 15.7006C109.512 15.3978 109.228 15.0303 109.01 14.5981C108.79 14.1667 108.681 13.6412 108.681 13.0224C108.681 12.4035 108.797 11.8461 109.029 11.3501C109.261 10.8532 109.589 10.4316 110.014 10.0838C110.441 9.73506 110.956 9.4674 111.562 9.28077C112.167 9.09414 112.85 9 113.612 9C114.514 9 115.294 9.09741 115.951 9.29059C116.608 9.48377 117.151 9.69659 117.576 9.92824L116.706 12.3069C116.332 12.1138 115.916 11.9427 115.458 11.7945C115.001 11.6464 114.45 11.5719 113.805 11.5719C113.083 11.5719 112.564 11.6718 112.249 11.8723C111.933 12.072 111.774 12.3782 111.774 12.7907C111.774 13.0355 111.832 13.2417 111.948 13.4095C112.065 13.5765 112.229 13.7279 112.441 13.8638C112.654 13.9989 112.899 14.1217 113.176 14.2314C113.454 14.341 113.76 14.4532 114.095 14.5694C114.791 14.8273 115.397 15.0818 115.913 15.3339C116.428 15.5844 116.857 15.8783 117.199 16.2131C117.54 16.5487 117.795 16.9416 117.963 17.3926C118.13 17.8436 118.214 18.392 118.214 19.0362C118.214 20.287 117.776 21.257 116.899 21.947C116.022 22.6362 114.701 22.9808 112.935 22.9808C112.341 22.9808 111.807 22.9456 111.33 22.8752C110.853 22.804 110.431 22.7164 110.063 22.6141C109.696 22.511 109.38 22.4013 109.116 22.2851C108.851 22.1688 108.629 22.06 108.448 21.956L109.3 19.5585C109.699 19.7778 110.192 19.9743 110.779 20.1478C111.365 20.3222 112.084 20.4098 112.935 20.4098Z" fill="#060606"/>
<path d="M124.75 11.7273C124.53 11.7273 124.314 11.7347 124.101 11.747C123.889 11.7592 123.705 11.7723 123.551 11.7854V15.6531H124.498C125.542 15.6531 126.329 15.5115 126.857 15.2274C127.385 14.9442 127.65 14.4154 127.65 13.6419C127.65 13.2686 127.583 12.9592 127.447 12.7137C127.311 12.4689 127.118 12.2725 126.867 12.1243C126.615 11.9762 126.309 11.8722 125.948 11.8149C125.587 11.7568 125.188 11.7273 124.75 11.7273ZM124.557 9.15625C126.554 9.15625 128.089 9.50659 129.158 10.2097C130.228 10.912 130.764 12.0629 130.764 13.6616C130.764 15.2733 130.222 16.4364 129.139 17.1518C128.056 17.8673 126.509 18.225 124.498 18.225H123.551V22.7114H120.534V9.50413C121.191 9.3748 121.887 9.28477 122.622 9.2332C123.357 9.18163 124.002 9.15625 124.557 9.15625Z" fill="#060606"/>
<path d="M135.52 16.0002C135.52 16.6575 135.6 17.251 135.761 17.7798C135.923 18.3085 136.154 18.7628 136.458 19.1427C136.761 19.5233 137.132 19.8163 137.57 20.0226C138.008 20.2289 138.511 20.332 139.078 20.332C139.632 20.332 140.132 20.2289 140.577 20.0226C141.021 19.8163 141.395 19.5233 141.698 19.1427C142.001 18.7628 142.233 18.3085 142.395 17.7798C142.555 17.251 142.636 16.6575 142.636 16.0002C142.636 15.3429 142.555 14.747 142.395 14.2117C142.233 13.6772 142.001 13.2188 141.698 12.8382C141.395 12.4584 141.021 12.1653 140.577 11.9582C140.132 11.7528 139.632 11.6496 139.078 11.6496C138.511 11.6496 138.008 11.7561 137.57 11.9681C137.132 12.1817 136.761 12.478 136.458 12.8586C136.154 13.2385 135.923 13.696 135.761 14.2314C135.6 14.7667 135.52 15.356 135.52 16.0002ZM145.75 16.0002C145.75 17.1478 145.578 18.1563 145.237 19.0264C144.896 19.8965 144.428 20.6259 143.835 21.2119C143.241 21.7988 142.536 22.24 141.717 22.5364C140.899 22.8327 140.019 22.9808 139.078 22.9808C138.162 22.9808 137.299 22.8327 136.487 22.5364C135.675 22.24 134.966 21.7988 134.36 21.2119C133.754 20.6259 133.277 19.8965 132.928 19.0264C132.581 18.1563 132.406 17.1478 132.406 16.0002C132.406 14.8534 132.586 13.8442 132.948 12.9741C133.308 12.1039 133.795 11.3722 134.408 10.7795C135.02 10.1861 135.73 9.74161 136.535 9.44448C137.34 9.14816 138.188 9 139.078 9C139.993 9 140.857 9.14816 141.67 9.44448C142.482 9.74161 143.19 10.1861 143.796 10.7795C144.402 11.3722 144.878 12.1039 145.227 12.9741C145.576 13.8442 145.75 14.8534 145.75 16.0002Z" fill="#060606"/>
<path d="M152.362 11.7273C152.143 11.7273 151.947 11.7347 151.773 11.747C151.598 11.7592 151.435 11.7723 151.28 11.7854V15.4206H152.13C153.265 15.4206 154.077 15.279 154.566 14.9958C155.057 14.7117 155.302 14.2288 155.302 13.5453C155.302 12.888 155.054 12.4206 154.557 12.1431C154.06 11.8665 153.33 11.7273 152.362 11.7273ZM152.188 9.15625C154.2 9.15625 155.739 9.51314 156.81 10.2285C157.88 10.944 158.415 12.0564 158.415 13.565C158.415 14.5055 158.199 15.27 157.768 15.8561C157.335 16.443 156.713 16.9038 155.901 17.2386C156.172 17.5742 156.456 17.9573 156.752 18.3895C157.048 18.8209 157.342 19.2727 157.632 19.7426C157.922 20.2132 158.202 20.7035 158.473 21.2127C158.744 21.7218 158.995 22.2211 159.227 22.7114H155.856C155.609 22.2727 155.36 21.8282 155.107 21.3772C154.855 20.9262 154.597 20.4874 154.331 20.0618C154.066 19.6361 153.803 19.2334 153.545 18.8536C153.286 18.473 153.027 18.1284 152.769 17.819H151.28V22.7114H148.263V9.50413C148.921 9.3748 149.6 9.28477 150.303 9.2332C151.005 9.18163 151.634 9.15625 152.188 9.15625Z" fill="#060606"/>
<path d="M170.907 9.30859V11.8805H166.865V22.7099H163.848V11.8805H159.807V9.30859H170.907Z" fill="#060606"/>
<path d="M176.496 20.4098C176.922 20.4098 177.273 20.3738 177.55 20.3034C177.827 20.2321 178.05 20.1356 178.218 20.0128C178.385 19.8908 178.501 19.7459 178.566 19.5781C178.63 19.4103 178.662 19.2237 178.662 19.0166C178.662 18.5787 178.456 18.2144 178.043 17.9246C177.631 17.6341 176.922 17.3214 175.916 16.9866C175.477 16.8319 175.039 16.6551 174.601 16.4554C174.163 16.2548 173.77 16.0035 173.421 15.7006C173.074 15.3978 172.79 15.0303 172.571 14.5981C172.351 14.1667 172.242 13.6412 172.242 13.0224C172.242 12.4035 172.358 11.8461 172.589 11.3501C172.822 10.8532 173.151 10.4316 173.576 10.0838C174.002 9.73506 174.518 9.4674 175.124 9.28077C175.728 9.09414 176.412 9 177.173 9C178.075 9 178.855 9.09741 179.513 9.29059C180.17 9.48377 180.712 9.69659 181.137 9.92824L180.267 12.3069C179.893 12.1138 179.477 11.9427 179.02 11.7945C178.562 11.6464 178.011 11.5719 177.366 11.5719C176.644 11.5719 176.125 11.6718 175.809 11.8723C175.494 12.072 175.336 12.3782 175.336 12.7907C175.336 13.0355 175.394 13.2417 175.51 13.4095C175.626 13.5765 175.791 13.7279 176.003 13.8638C176.215 13.9989 176.46 14.1217 176.738 14.2314C177.014 14.341 177.321 14.4532 177.656 14.5694C178.353 14.8273 178.958 15.0818 179.474 15.3339C179.99 15.5844 180.419 15.8783 180.76 16.2131C181.101 16.5487 181.356 16.9416 181.524 17.3926C181.692 17.8436 181.776 18.392 181.776 19.0362C181.776 20.287 181.336 21.257 180.46 21.947C179.584 22.6362 178.262 22.9808 176.496 22.9808C175.903 22.9808 175.367 22.9456 174.892 22.8752C174.414 22.804 173.992 22.7164 173.625 22.6141C173.256 22.511 172.941 22.4013 172.677 22.2851C172.413 22.1688 172.191 22.06 172.01 21.956L172.86 19.5585C173.261 19.7778 173.753 19.9743 174.34 20.1478C174.926 20.3222 175.645 20.4098 176.496 20.4098Z" fill="#060606"/>
</svg>
