<svg width="40" height="40" viewBox="0 0 40 40" fill="none" xmlns="http://www.w3.org/2000/svg">
<rect width="40" height="40" rx="8" fill="#0099FF"/>
<path d="M25.7874 29.2498C28.204 26.8243 30.268 24.3293 31.7489 21.7195C32.3243 20.7058 31.8879 19.3691 30.6751 18.9304C29.4624 18.4918 27.4314 18.1383 23.5603 19.1488C22.2618 19.4879 19.6966 20.3747 17.4232 20.8329C15.9093 21.1383 16.3822 20.1291 16.667 19.6532C18.0522 17.3385 20.7838 14.5308 22.9955 13.2606C23.5844 12.9221 25.6734 11.9286 29.8599 14.7989C27.8662 12.3281 24.8858 10.5033 23.6512 10.1148C23.1143 9.94589 22.5354 9.96547 22.0068 10.1597C17.3086 11.8847 11.6387 16.9207 8.41039 22.4188C7.45899 24.0391 8.21934 25.31 10.0965 25.2345C14.0691 25.0743 20.9822 21.3836 25.4076 19.6574C26.1673 19.361 26.996 19.8992 27.0301 20.7138C27.1318 23.1464 26.5574 26.1198 25.7874 29.2498Z" fill="white"/>
</svg>
